<svg height="120" viewBox="0 0 1400 120" width="1400" xmlns="http://www.w3.org/2000/svg"><g fill="none" fill-rule="evenodd"><g transform="translate(1000)"><path d="m0 0h200v120h-200z"/><path d="m32.704 51.361v.001h11.075v7.81h-4.415v-3.026c.013-.352-.142-.775-.619-.775l-4.42-.007c-.456.008-.604.428-.623.768v2.3h.755c.127 0 .251-.135.251-.246v-1.018l3.644-.016v6.562h-3.634v-1.011c-.01-.111-.151-.251-.272-.251h-.75l-.014 2.432c.014.231.266.603.775.603h1.895v3.914h-3.648c-1.152.048-1.847-.78-1.968-1.641-.167.901-.959 1.701-2.184 1.641l-3.552.014v-3.928h1.998c.505 0 .644-.372.64-.604l.004-2.49c-.004-.953-1.656-1.781-1.863-2.001.207-.235 1.911-1.198 1.881-1.962v-2.33c0-.34-.121-.714-.619-.73h-1.918l-.025-4.009h3.476c1.086 0 2.057.645 2.16 1.835.048-1.191 1.217-1.79 1.97-1.835zm26.601 10.395h4.457l-.01 7.647h-11.119c-1.149.047-1.853-.78-1.963-1.642-.165.902-.958 1.702-2.198 1.642h-3.566v-3.914h1.88c.526-.023.767-.373.767-.563l.01-2.472c-.01-.945-1.649-1.784-1.863-1.979.214-.253 1.915-1.2 1.89-1.987v-2.342c-.02-.318-.061-.744-.625-.758l-2.039-.017.02-4.01h3.539c1.099.044 2.098.664 2.185 1.874.035-1.21 1.195-1.829 1.945-1.874h11.113l.021 7.858-4.427.006v-3.078c-.015-.384-.182-.775-.669-.775h-4.28c-.503 0-.753.422-.753.78l.011 2.281h.889c.122 0 .27-.146.27-.256v-.977l3.65-.03v6.555l-3.656.01s-.016-1.054-.002-1.054c-.003-.083-.118-.227-.263-.227h-.913l-.007 2.454c.021.319.29.58.761.58h4.38c.438 0 .582-.372.582-.59zm26.2 3.733h1.302v3.902h-3.946c-.727-.013-1.177.012-1.912-.166-1.742-.39-2.375-2.869-2.485-5.196-.026-.995-.802-1.593-1.736-1.615h-2.162v2.411c0 .291.355.664.833.664h1.839s0 3.914-.009 3.914h-3.653c-1.147.047-1.85-.78-1.97-1.642-.156.902-.954 1.702-2.188 1.632l-3.546.01v-3.915h1.883c.499 0 .76-.372.76-.58v-2.472c0-.943-1.633-1.779-1.853-1.988.206-.24 1.916-1.204 1.886-1.974v-2.342c.012-.304-.142-.761-.675-.761h-2.02v-4.01h3.602c1.172.044 2.073.664 2.143 1.874.051-1.21 1.377-1.821 2.113-1.874h7.178c3.76-.078 5.113 2.654 5.103 4.833-.024 1.861-1.298 3.99-3.654 4.034 2.87.584 2.486 2.577 2.452 4.569.0004543.18741.0766847.3666697.2113523.4970053.1346675.1303355.316323.2006662.5036477.1949947zm-7.599-7.077h-.001c1.995.02 1.93-2.942-.07-3.024h-2.363c-.693 0-.882.535-.882.987v2.037zm29.872 7.015h.001 1.3v3.932l-3.87.02c-.455.013-1.113.024-1.945-.164-1.792-.38-2.386-2.862-2.49-5.213-.038-.977-.815-1.587-1.757-1.602h-2.2v2.409c.014.25.343.618.832.618h1.84l.02 3.965-.001-.001h-3.611c-1.166.049-1.853-.779-1.97-1.643-.165.895-.958 1.7-2.188 1.63l-3.559.013-.03-3.966h1.876c.472 0 .722-.368.722-.56l-.01-2.471c-.013-.953-1.656-1.771-1.864-1.984.208-.251 1.907-1.191 1.875-1.978l.051-2.35c0-.356-.051-.734-.595-.742l-2.069.008-.01-4.034h3.595c1.095.037 2.073.671 2.157 1.865.051-1.195 1.356-1.818 2.116-1.865h7.152c3.75-.078 5.127 2.689 5.116 4.849-.029 1.877-1.307 3.996-3.67 4.059 2.869.572 2.433 2.574 2.469 4.548.018894.3783306.338463.6711566.717.657zm-7.632-6.984c1.93-.011 1.93-3.042-.071-3.033h-2.362c-.693 0-.882.532-.882.996v2.037zm24.439 3.313h4.46l-.021 7.675h-11.102c-.989.034-1.846-.767-1.966-1.645-.17.903-.958 1.704-2.2 1.645l-3.538.01-.023-3.951h1.855c.507 0 .784-.353.784-.582l.022-2.472c-.022-.941-1.663-1.778-1.87-1.988.207-.239 1.912-1.204 1.887-1.974v-2.341c-.01-.358-.147-.744-.637-.76l-1.918.03-.027-4.04h3.465c1.104.044 2.076.663 2.173 1.853.053-1.19 1.19-1.809 1.957-1.853h11.127l.01 7.834-4.417.028v-3.091c-.011-.377-.216-.732-.666-.745h-4.283c-.558 0-.748.374-.748.744v2.3h.888c.142 0 .272-.116.272-.256v-.977l3.642-.03v6.555l-3.642.01s-.011-.961-.014-1.048c.015-.108-.115-.233-.268-.233h-.909v2.454c0 .332.233.58.761.58h4.393c.508 0 .564-.372.564-.59zm26.32 3.731h1.287l-.008 3.929-3.846.013c-.708.021-1.086.09-1.931-.147-1.791-.51-2.38-2.867-2.476-5.213-.046-.99-.856-1.593-1.789-1.615h-2.22v2.395c.012.267.387.64.848.64h1.841l-.025 3.914h-3.642c-1.147.047-1.828-.772-1.97-1.642-.166.902-.963 1.702-2.182 1.642l-3.557.013.011-3.929 1.88-.023c.51.023.757-.35.757-.54v-2.472c0-.944-1.64-1.768-1.854-1.978.21-.253 1.914-1.2 1.87-1.988l.019-2.355c0-.338-.061-.76-.601-.76h-2.072l-.011-4.011h3.597c1.076.046 2.059.683 2.155 1.873.047-1.208 1.361-1.851 2.104-1.873h7.14c3.847 0 5.152 2.674 5.134 4.857-.027 1.854-1.301 3.991-3.657 4.053 2.873.57 2.37 2.572 2.459 4.554.013.291.213.663.739.663zm-7.759-7.044c1.924-.033 2.286-2.894-.07-3.033h-2.238c-.68 0-.872.532-.872.996v2.037zm29.93.161c.173.794 1.382 1.366 1.924 1.777-.554.414-1.738 1.029-1.901 1.814-.312 4.749-4.005 7.601-9.88 7.623-7.911-.009-9.867-4.381-10.023-7.694-.151-.81-1.361-1.39-1.891-1.806.548-.393 1.752-1.012 1.912-1.79.355-4.743 3.991-7.548 9.856-7.527 7.913-.065 9.83 4.283 10.003 7.603zm-9.91 7.107v-.001c2.151.033 3.165-2.7 3.127-3.5-.018-.921-1.468-1.652-1.65-1.816.246-.201 1.632-.87 1.65-1.866-.018-1.221-1.017-3.408-3.152-3.418-2.156-.059-3.161 2.671-3.116 3.456.011.94 1.448 1.679 1.623 1.844-.251.204-1.643.854-1.655 1.84-.011 1.238 1.036 3.432 3.173 3.461z" fill="#470000" fill-rule="nonzero"/></g><g transform="translate(1200)"><path d="m0 0h200v120h-200z"/><g fill-rule="nonzero"><path d="m86 46.128h3.062v.638h-2.401v2.042h2.161v.639h-2.161v2.425h-.661zm5.704 5.808v-5.808h.66v5.808zm7.806 0-3.422-4.596v4.596h-.6v-5.808h.54l3.422 4.595v-4.595h.6v5.808zm5.164-5.872h.54l2.343 5.872h-.661l-.72-1.787h-2.462l-.721 1.787h-.66zm-.72 3.447h1.981l-.96-2.49zm9.967 2.425-3.422-4.596v4.596h-.6v-5.808h.54l3.422 4.595v-4.595h.6v5.808zm7.566-.574c-.36.383-1.02.638-1.74.638-1.623 0-2.763-1.149-2.763-3 0-1.66 1.02-3 2.702-3 .72 0 1.261.191 1.681.574l-.3.511c-.36-.255-.78-.447-1.32-.447-1.202 0-2.043.958-2.043 2.298 0 1.404.841 2.298 2.102 2.298.54 0 1.02-.191 1.38-.51zm2.522.574v-5.808h.66v5.808zm5.404-5.872h.541l2.341 5.872h-.72l-.72-1.787h-2.463l-.72 1.787h-.66zm-.72 3.447h1.981l-.96-2.49zm5.944-3.383h.66v5.17h2.703v.638h-3.363zm10.99 2.808h2.043v2.234c-.467.51-1.342.83-1.984.83-1.635 0-2.686-1.15-2.686-3 0-1.66 1.05-3 2.627-3 .7 0 1.226.191 1.693.574l-.292.575c-.292-.32-.817-.447-1.284-.447-1.168 0-1.985.894-1.985 2.298s.817 2.298 2.043 2.298c.526 0 1.11-.192 1.343-.511v-1.213h-1.46v-.638zm4.554 3v-5.808h1.401c1.46 0 1.868.766 1.868 1.723 0 .894-.584 1.468-1.168 1.66l1.752 2.425h-.817l-1.635-2.298h-.875v2.298zm.642-5.17v2.17h.76c.64 0 1.225-.383 1.225-1.085 0-.574-.292-1.085-1.226-1.085h-.76zm7.59-.766c1.518 0 2.685 1.213 2.685 3 0 1.723-1.167 3-2.686 3-1.518 0-2.685-1.213-2.685-3 0-1.66 1.11-3 2.685-3zm0 5.362c1.226 0 2.043-1.022 2.043-2.298 0-1.34-.876-2.298-2.044-2.298-1.167 0-2.043.958-2.043 2.298.059 1.276.935 2.298 2.043 2.298zm9.399-1.851c0 1.787-.993 2.489-2.043 2.489-1.285 0-2.219-.83-2.219-2.553v-3.32h.642v3.192c0 1.277.584 2.043 1.577 2.043.875 0 1.4-.639 1.4-1.979v-3.255h.643zm2.802 2.425v-5.808h1.402c1.517 0 1.984.893 1.984 1.787 0 .957-.642 1.85-1.927 1.85-.233 0-.525 0-.817-.063v2.234zm.642-5.17v2.234c.234 0 .526.064.76.064.759 0 1.225-.447 1.225-1.15 0-.701-.409-1.148-1.225-1.148zm-75.929 14.753v1.962h-6.74v6.288h-2.587v-14.769h10.41v1.962h-7.822v4.557h6.74zm14.322-6.461h2.588v9.866c0 1.614-.542 2.884-1.625 3.75-1.083.865-2.528 1.326-4.393 1.326-1.805 0-3.25-.461-4.332-1.326-1.084-.866-1.626-2.136-1.626-3.75v-9.866h2.588v9.866c0 1.038.301 1.788.903 2.307s1.444.807 2.527.807c1.084 0 1.926-.288 2.528-.807.602-.52.902-1.327.902-2.307v-9.866zm18.053-.058v1.962h-4.634v12.807h-2.587v-12.807h-4.634v-1.962zm13.118.058h2.588v9.866c0 1.614-.542 2.884-1.625 3.75-1.083.865-2.528 1.326-4.393 1.326s-3.25-.461-4.332-1.326c-1.084-.866-1.626-2.136-1.626-3.75v-9.866h2.588v9.866c0 1.038.301 1.788.903 2.307s1.444.807 2.527.807 1.926-.288 2.528-.807c.601-.52.902-1.327.902-2.307v-9.866zm13.54 8.596h-3.43v6.115h-2.588v-14.769h5.717c1.745 0 3.069.346 3.971 1.096.903.75 1.384 1.789 1.384 3.173 0 1.5-.782 2.654-2.407 3.289 1.625.519 2.468 1.673 2.468 3.52v1.21c0 1.097.24 1.79.722 2.193v.23h-2.648c-.421-.345-.662-1.21-.662-2.48v-1.096c0-.75-.24-1.385-.662-1.789-.421-.404-1.083-.692-1.865-.692zm-3.43-6.692v4.673h3.008c1.023 0 1.806-.173 2.227-.577s.722-.923.722-1.731-.24-1.385-.722-1.788c-.482-.404-1.204-.635-2.106-.635h-3.13v.058zm22.987 4.211v1.961h-6.74v4.674h7.823v1.961h-10.41v-14.769h10.29v1.962h-7.703v4.153h6.74z" fill="#5d87a1"/><path d="m42.389 69.566h32.611v-35.24l-33.394 33.372c-.18.182-.42.242-.661.242s-.482-.06-.662-.242c-.3609534-.3679191-.3609534-.9570809 0-1.325l33.393-33.373h-35.198v32.65c-.0115906.4939982-.409015.8918626-.903.904-.4932172-.0126391-.8899074-.4097691-.902-.903v-32.651h-11.613v23.675l9.687 9.698c.3609534.3679191.3609534.9570809 0 1.325-.18.182-.42.242-.662.242-.24 0-.48-.06-.661-.242l-8.424-8.434v10.302h7.641c.482 0 .903.422.903.904-.0121153.4936077-.4093923.8908847-.903.903h-7.58v10.302l8.423-8.434c.3672386-.3607147.9557614-.3607147 1.323 0 .3609534.3679191.3609534.9570809 0 1.325l-8.423 8.434h10.289v-7.65c0-.483.42-.904.902-.904s.903.421.903.903v7.651h10.289l-8.424-8.434c-.3609534-.3679191-.3609534-.9570809 0-1.325.3673596-.36137.9566404-.36137 1.324 0l9.687 9.759h23.646v-11.566h-32.611c-.482 0-.903-.423-.903-.964 0-.482.421-.904.903-.904z" fill="#f04d23"/></g></g><g transform="translate(800)"><path d="m0 0h199.005v120h-199.005z"/><path d="m84.1340202 94.4710319c-.6818546.181993-1.1832901.2912203-1.5050202.3269681-.3449771.0435093-.6922918.0658844-1.04.067-.706 0-1.613-.091-2.183-.274-.57-.182-.992-.452-1.262-.808-.266-.357-.365-.908-.3-1.654l.593-6.89h1.955l-.231 2.657h2.787l-.082.943h-2.786l-.281 3.271c-.047.548.015.935.19 1.162.173.223.416.387.727.493.3683843.1118053.7521017.16479 1.137.157.4740796 0 .9673988-.0580565 1.4799577-.1741694-.3118907-.4639452-.4360869-1.0612579-.3729577-1.7908306.07-.802.36-1.517.871-2.146.51-.633 1.164-1.13 1.96-1.495.796-.367 1.816-.529 2.922-.529.32 0 .802.023 1.445.067.095.009.24.018.432.03h2.014l-.59 6.792h-2.005l.128-1.478c-.0028185-.015859-.0044895-.0319006-.005-.048-.563.568-1.251 1.1-2.016 1.394-.76.293-1.447.44-2.063.44-.7137159 0-1.3535644-.1709894-1.9189798-.5129681zm-16.4730202-.1920319.034-1.545c1.092.824 2.327 1.306 3.941 1.28.4862443.0009309.9704649-.0626231 1.44-.189.463-.13.82-.314 1.071-.553.256-.24.397-.499.421-.778.029-.329-.095-.506-.39-.79-.296-.287-.889-.65-1.74-.995l-1.775-.721c-1.587-.653-2.35-1.542-2.266-2.51.062-.71.479-1.306 1.253-1.789.779-.486 1.948-.729 3.507-.729 1.003 0 2.454.232 3.374.427l-.045 1.16c-.664-.305-2.012-.68-2.991-.68-.78 0-1.403 0-1.91.275-.502.276-.77.609-.803.998-.034.385.122.705.469.96.346.256 3.6 1.642 3.6 1.642 1.407.555 2.23 1.607 2.097 2.557-.11.779-.656 1.5-1.508 1.912-.889.429-2.24.718-3.718.751-.841.02-1.605-.065-2.15-.167-.6493769-.1223596-1.288291-.2948764-1.911-.516zm22.588-2.472.253-2.913c-.5456134-.1012095-1.0990928-.1540811-1.654-.158-1.039 0-1.93.27-2.671.808-.736.54-1.144 1.273-1.225 2.202-.058.673.085 1.181.43 1.526.35.34.768.51 1.252.51.525 0 1.12-.178 1.786-.535.6866488-.3732121 1.3050737-.8601076 1.829-1.44zm3.451 2.87.59-6.793h1.935l-.129 1.484c.503-.754 1.255-1.244 2.277-1.612.51-.184 1.36-.292 1.36-.292l-.165 1.356s-.57.098-.921.206c-1.178.364-2.038 1.04-2.67 1.704l-.342 3.947zm6.493 0 .821-9.438h2.08l-.353 4.062h4.948l.353-4.062h2.076l-.821 9.438h-2.076l.386-4.433h-4.949l-.385 4.433zm20.31-6.793-.59 6.792h-1.994l.13-1.49c-.556428.5362552-1.208321.9636147-1.922 1.26-.689.28-1.673.42-2.338.42-.550642.0078118-1.096778-.100189-1.603-.317-.471-.215-.789-.495-.952-.84-.163-.348-.2-1.025-.113-2.03l.33-3.795h1.993l-.343 3.935c-.057.652-.048 1.084.024 1.294.079.207.236.378.472.511.242.134.509.201.798.201.592 0 1.243-.186 1.952-.56.689765-.3563246 1.306726-.8386323 1.819-1.422l.344-3.959zm3.397 1.527c.57-.568 1.261-1.056 2.025-1.352.763-.295 1.454-.443 2.075-.443.867 0 1.627.252 2.278.755.65.504.93 1.267.842 2.29-.065443.7956613-.374857 1.5517359-.886 2.165-.514.632-1.17 1.133-1.972 1.503-.8.366-1.768.55-2.903.55-.322 0-.31-.04-.975-.085-.099-.007-.899-.117-1.464-.117h-1.47l.82-9.437h1.993l-.363 4.17zm-.116 1.344-.254 2.912c.552025.1011141 1.111805.1539803 1.673.158 1.02 0 1.901-.268 2.644-.803.747-.539 1.161-1.275 1.243-2.207.059-.677-.087-1.185-.438-1.526-.331406-.3319945-.782942-.5159269-1.252-.51-.526 0-1.122.178-1.787.534-.66.357-1.27.838-1.829 1.442zm-27.845-23.145v-.001c2.648-2.6 5.096-5.184 6.832-7.226.660861 1.0704247 1.333569 2.1334901 2.018 3.189l-.898 13.126-6.79 5.999zm-1.76-22.828-1.483-19.248 14.49 3.015-1.021 14.925c-.317-1.36-2.456-10.217-4.31-9.654-2.292.693-4.268 10.443-4.268 10.443-.796.06-2.002.244-3.408.519zm11.986-1.308.04.174s13.985-1.195 14.837 1.357c1.012 3.034-11.448 7.376-11.448 7.376s7.97 21.991 5.277 23.268c-1.519.72-7.051-7.393-10.082-12.077zm-11.986 1.308 1.76 22.827c-6.656 6.534-14.579 13.171-15.64 11.574-1.815-2.737 14.493-26.287 14.493-26.287-1.33.147-14.013-.051-13.828-2.935.122-1.903 8.029-4.164 13.215-5.179z" fill="#73c20e" fill-rule="nonzero"/></g><g transform="translate(600)"><path d="m0 0h200v120h-200z"/><path d="m74.963 52.074-5.018.717v23.879h5.018zm5.735 9.045-4.797.386v5.625l4.797-.276zm-12.573-8.107-13.125 1.875.055 4.853 13.07-1.434zm23.879 23.658h8.382v-6.232l-8.382.221zm-1.103-26.857-5.736.828v26.029h5.736zm-15 26.857h7.334v-5.735l-7.334.22zm0-19.246 7.334-.772v-5.736l-7.334.993zm-11.857 19.246v-17.15l-4.853.496v16.654zm80.35 0v-7.555l-22.611.662.055 6.893h22.555zm-15.277-19.908c-.33-4.412 1.048-5.46 2.372-6.066v-7.39c-6.563 1.379-9.761 6.232-9.375 14.118zm6.673-4.908c.772 1.6-.055 4.026-1.93 6.232-2.923 3.419-10.698 10.477-10.698 10.477l11.14-.386c6.782-6.617 9.264-10.643 9.705-15.661.22682-2.6320014-.745705-5.2258911-2.647-7.06-2.096-1.984-5.184-2.812-8.548-2.315v7.28c1.379-.111 2.482.385 2.978 1.433zm-16.103-6.066-9.706 1.323v6.563l9.706-1.048zm-10.919 1.544-6.617.882v28.456h6.617zm7.555 10.698-6.342.552v6.673l6.342-.331zm3.364 11.802-9.706.276v6.562h9.706z" fill="#000" fill-rule="nonzero"/></g><g transform="translate(400)"><path d="m0 0h200v120h-200z"/><path d="m44 81.982h43.985v-43.982h-43.985zm68.007-24.496h-.055l-3.076 11.387h-4.08l-3.082-11.387h-.046v11.387h-5.177v-17.742h7.782l2.542 10.438h.042l2.545-10.438h7.775v17.742h-5.17zm18.586 11.387h-5.464v-13.198h-4.968v-4.544h15.412v4.544h-4.98zm18.177-11.139c-.1-.64-.6-2.607-2.852-2.607-2.566 0-3.388 2.488-3.388 4.879 0 2.387.822 4.868 3.388 4.868 1.83 0 2.556-1.291 2.877-2.965h5.37c0 3.579-2.91 7.39-8.105 7.39-5.745 0-8.994-4.051-8.994-9.293 0-5.597 3.527-9.295 8.994-9.295 4.875.02 7.561 2.577 8.024 7.022h-5.313z" fill="#e30613" fill-rule="nonzero"/><path d="m65.992 77.455c-8.468 0-12.925-6.485-12.925-14.086 0-9.677 6.673-20.852 12.925-20.852 6.25 0 12.93 11.175 12.93 20.852 0 7.602-4.468 14.086-12.93 14.086z" fill="#fff"/></g><g transform="translate(200)"><path d="m0 0h200v120h-200z"/><g fill-rule="nonzero"><path d="m49.039 49.526c1.961 0 3.806.867 5.16 2.224v.005c0-.651.438-1.142 1.047-1.142l.154-.002c.953 0 1.148.902 1.148 1.187l.006 10.134c-.069.663.684 1.006 1.101.58 1.626-1.672 3.573-8.596-1.012-12.609-4.275-3.74-10.009-3.123-13.058-1.022-3.24 2.237-5.316 7.185-3.3 11.834 2.197 5.07 8.482 6.581 12.217 5.072 1.892-.763 2.766 1.794.801 2.63-2.968 1.265-11.231 1.137-15.091-5.55-2.608-4.514-2.469-12.457 4.447-16.573 5.292-3.149 12.268-2.278 16.474 2.116 4.397 4.593 4.14 13.192-.148 16.537-1.944 1.519-4.83.04-4.811-2.174l-.02-.724c-1.354 1.343-3.154 2.126-5.115 2.126-3.876 0-7.287-3.41-7.287-7.285 0-3.914 3.411-7.364 7.287-7.364zm4.878 7.083c-.147-2.838-2.254-4.544-4.797-4.544h-.096c-2.936 0-4.564 2.308-4.564 4.931 0 2.936 1.97 4.792 4.553 4.792 2.88 0 4.773-2.11 4.91-4.605zm76.275 8.453c-.009.686-.726 1.389-1.766 1.389-1.05 0-1.704-.767-1.704-1.445l.002-1.172c.012-.706.664-1.437 1.73-1.437 1.162 0 1.742.784 1.742 1.523zm11.363-16.573c1.217-.004 1.729.935 1.732 1.647.007.892-.692 1.698-1.753 1.694-3.265-.016-5.591 2.923-5.587 5.584v7.435c0 .879-.762 1.602-1.74 1.602-.822 0-1.602-.7-1.602-1.653v-7.323c-.024-4.697 4.106-8.966 8.95-8.986zm20.115 0c.994 0 1.678.798 1.678 1.626v7.381c0 4.519-3.955 8.938-9.108 8.938-4.719 0-8.976-4.196-8.976-8.96v-7.357c0-.945.832-1.627 1.646-1.627 1.153 0 1.733.886 1.733 1.66v7.383c0 3.205 2.886 5.568 5.608 5.568 3.331 0 5.725-2.777 5.725-5.622v-7.37c0-.776.664-1.62 1.694-1.62z" fill="#f89c0e"/><path d="m112.664 45.64c0 .724-.723 1.317-1.765 1.317-1.048 0-1.702-.718-1.702-1.395l.001-.932c.012-.705.628-1.495 1.691-1.495 1.165 0 1.775.756 1.775 1.495zm-31.35 2.86v.002c1.704-.051 5.548 1.765 5.538 5.658v10.608c0 1.125-.95 1.668-1.77 1.668-.934 0-1.801-.731-1.801-1.653v-10.653c0-1.116-.942-2.277-2.008-2.333-1.359-.071-3.346 1.024-3.346 2.333v10.668c0 .873-.766 1.638-1.78 1.638-.852 0-1.79-.715-1.79-1.647l-.01-10.558c0-1.501-1.146-2.451-2.11-2.464-1.511-.021-3.296 1.217-3.296 2.261v10.734c0 .826-.618 1.68-1.734 1.68-1.014 0-1.724-.842-1.724-1.674l-.01-14.473c0-1.115.852-1.8 1.653-1.8.731 0 1.156.442 1.481 1.192.922-.75 2.376-1.272 3.924-1.176 1.47.091 2.9.822 4.017 2.017 1.006-.822 2.636-2.058 4.766-2.028zm29.6-.008c.904-.003 1.766.89 1.766 1.744l-.006 14.44c0 .918-.689 1.76-1.766 1.76-.945 0-1.708-.719-1.702-1.685l-.003-14.539c.001-.865.671-1.717 1.711-1.72zm-6.036.003c1.024.002 1.777.95 1.764 1.635v14.593c0 .759-.538 1.719-1.739 1.719-.445588.0115568-.877102-.1565707-1.197416-.4665398s-.502512-.7357334-.505584-1.1814602l-.005-.424c-1.527 1.303-3.675 2.072-5.675 2.072-4.94 0-8.94-4.376-8.94-8.958 0-4.996 4.199-8.99 8.94-8.983 2.156.003 4.151.817 5.691 2.13v-.594c0-.762.691-1.542 1.667-1.542zm-7.31 14.624h.001c1.5000645.0005305 2.938901-.594859 3.999982-1.6551897s1.657488-2.4987458 1.658018-3.9988103c-.000265-1.5004111-.596692-2.9392347-1.658018-3.9998105-1.061326-1.0605757-2.5005711-1.6559854-4.000982-1.6551895-2.0380783-.027104-3.9330465 1.0446705-4.9599903 2.8053194-1.0269437 1.7606489-1.0269437 3.9377123 0 5.6983612 1.0269438 1.7606489 2.921912 2.8324234 4.9599903 2.8053194zm25.25-.152h.001c1.098.001 1.718.897 1.718 1.685 0 .825-.579 1.798-1.779 1.798-4.042 0-7.592-3.366-7.579-7.658v-12.674c0-.805.638-1.619 1.745-1.623.953 0 1.731.668 1.733 1.623l-.002 12.659c0 2.496 1.963 4.19 4.163 4.19zm15.49 9.396c.193741-.0101683.383129.0598385.523676.1935755s.219865.3194176.219324.5134245c.000704.1974954-.079303.3867066-.22148.5237855-.142177.137079-.334182.2101265-.53152.2022145-1.399-.007-2.396 1.253-2.395 2.393v3.188c0 .377-.326.687-.746.687-.353 0-.687-.299-.687-.708v-3.14c-.01-2.013 1.76-3.844 3.838-3.853zm8.442 3.84c0 2.129-1.777 3.832-3.795 3.852l-.071.003c-2.119 0-3.833-1.876-3.833-3.841 0-2.128 1.777-3.832 3.794-3.85.024-.001.048-.004.071-.004 2.119 0 3.834 1.876 3.834 3.84zm-3.846 2.43.001.001c.25 0 .493-.039.72-.109.999274-.3145538 1.683401-1.235463 1.696-2.283v-.058c-.008623-.7661839-.37885-1.4832199-.99853-1.9338961-.61968-.4506763-1.415903-.5819683-2.14747-.3541039-.998844.3155565-1.682347 1.2365723-1.695 2.284v.058c.015882 1.3273993 1.096506 2.395095 2.424 2.395zm11.431-6.27h-.001c.390597-.0050165.71188.3064352.719.697v3.166c0 1.937-1.695 3.83-3.904 3.83-2.024 0-3.849-1.798-3.849-3.84v-3.153c0-.407.356-.7.706-.7.193899-.007893.382638.0635892.52266.19795s.219228.3199907.21934.51405v3.165c0 1.375 1.238 2.388 2.405 2.388 1.428 0 2.455-1.19 2.455-2.41v-3.159c.011436-.391679.335195-.701632.727-.696zm5.18.003c2.033-.003 3.833 1.709 3.833 3.852 0 1.964-1.715 3.841-3.833 3.841-.853 0-1.768-.327-2.423-.88v3.15c0 .394-.296.754-.756.754-.193599.0046334-.380754-.0696809-.518441-.2058587-.137687-.1361777-.214059-.3225031-.211559-.5161413l-.002-9.298c-.005-.293.317-.699.756-.7.419 0 .715.334.715.661v.255c.66-.563 1.516-.911 2.44-.913zm-.02 6.268h-.001c1.294847.0001705 2.361202-1.0173597 2.421674-2.3107934.060473-1.2934338-.906292-2.4060192-2.195507-2.5266623-1.289214-.1206431-2.445615.7932589-2.626167 2.0754557v.672c.167095 1.1979691 1.191434 2.0896262 2.401 2.09zm-26.36-6.271c.44.001.762.407.757.701v6.311c-.099 3.106-2.936 3.68-3.665 3.67-.968-.014-2.078-.138-2.713-.339-.498-.157-.742-.401-.743-.707-.003-.382.25-.813.752-.726.175.031 2.312.536 3.053.3 1.107-.351 1.751-1.164 1.863-2.054-.014-.056-.026-.35-.026-.35-.68454.5667937-1.543304.8807085-2.432.889-2.118 0-3.834-1.876-3.834-3.84 0-2.142 1.801-3.855 3.834-3.852.895825.0055838 1.760551.3291473 2.44.913v-.255c0-.327.296-.661.714-.661zm-3.134 6.27c1.339291 0 2.425-1.0857095 2.425-2.425s-1.085709-2.425-2.425-2.425-2.425 1.0857095-2.425 2.425 1.085709 2.425 2.425 2.425z" fill="#134785"/></g></g><path d="m0 0h200v120h-200z" fill="#fff" fill-opacity=".01" opacity=".1"/><g fill-rule="nonzero"><path d="m48.937 42.455h-1.63c-2.466 0-4.852 1.548-4.852 6.042 0 4.342 2.187 5.74 4.852 5.74h1.63zm-2.545 14.198-4.852 10.347h-3.54l5.33-11.065c-2.507-1.208-4.177-3.398-4.177-7.438 0-5.665 3.778-8.497 8.273-8.497h4.574v27h-3.063v-10.347z" fill="#f00"/><path d="m109.372 57.766c0-5.958 2.332-9.766 6.844-9.766 1.72 0 2.714.453 3.555.98l-.42 2.791c-.803-.68-1.95-1.32-3.174-1.32-2.14 0-3.67 2.375-3.67 7.164 0 4.75 1.147 7.466 3.555 7.466 1.453 0 2.562-.566 3.25-1.17l.688 2.187c-1.032.867-2.255 1.433-4.014 1.433-4.13 0-6.614-3.28-6.614-9.765zm-8.717.037v9.464h-2.982v-19.003h2.982v8.785l4.626-8.785h3.02l-4.778 8.936 5.466 10.067h-3.25zm-14.031-1.772h4.932c0-3.242-.536-5.618-2.256-5.618-1.835 0-2.485 2.224-2.676 5.618zm3.288 11.5c-3.976 0-6.423-3.129-6.423-8.973 0-6.108 1.72-10.558 5.811-10.558 3.212 0 5.315 2.375 5.315 8.822v1.622h-8.03c0 4.299 1.224 6.56 3.594 6.56 1.682 0 3.02-.753 3.785-1.28l.689 2.26c-1.224.944-2.83 1.547-4.741 1.547zm-12.693-16.892h-3.326v.34c0 3.997-.191 9.84-1.797 13.875h5.123zm4.473 20.361h-2.676v-3.733h-8.258v3.733h-2.678v-6.146h1.186c1.758-4.035 1.95-9.916 1.95-14.969v-1.621h8.946v16.59h1.529v6.146zm-15.332-22.736v19.003h-2.944v-8.52h-4.435v8.52h-2.981v-19.003h2.982v8.068h4.435v-8.068h2.944z" fill="#000"/><path d="m131 49.463c0-2.19.186-3.578 4.762-6.963 3.79-2.802 15.934-12.376 15.934-12.376v15.983h9.236v23.0030006l-27.047-.0000006c-1.585.001-2.885-1.285-2.885-2.857z" fill="#ffce01"/><path d="m151.61 46v8.942l-16.61 11.058 21-6.678v-13.322z" fill="#d2ab07"/><path d="m143.749 45.271c.862-1.202 2.12-1.626 2.811-.947.691.678.553 2.203-.309 3.405-.861 1.202-2.12 1.626-2.811.947s-.553-2.203.309-3.405" fill="#231f20"/></g></g></svg>